<?xml version="1.0" standalone="no"?><!DOCTYPE svg PUBLIC "-//W3C//DTD SVG 1.1//EN" "http://www.w3.org/Graphics/SVG/1.1/DTD/svg11.dtd"><svg t="1649417532555" class="icon" viewBox="0 0 1024 1024" version="1.1" xmlns="http://www.w3.org/2000/svg" p-id="4015" xmlns:xlink="http://www.w3.org/1999/xlink" width="200" height="200"><defs><style type="text/css">@font-face { font-family: feedback-iconfont; src: url("//at.alicdn.com/t/font_1031158_u69w8yhxdu.woff2?t=1630033759944") format("woff2"), url("//at.alicdn.com/t/font_1031158_u69w8yhxdu.woff?t=1630033759944") format("woff"), url("//at.alicdn.com/t/font_1031158_u69w8yhxdu.ttf?t=1630033759944") format("truetype"); }
</style></defs><path d="M440.6 20.6c-87.6 12.6-172.4 48.2-244.4 107.6l154.8 154.8c55.6-71.6 86.6-162.4 89.6-262.4zM512 444L827.8 128.2c-84.8-70-187.2-107-291-112.2-2.4 127.8-43 244.6-117.4 335.4L512 444zM128.2 196.2c-59.4 72-95 156.8-107.6 244.4 100-3 191-34 262.4-89.6L128.2 196.2z m544.4 408.4c90.6-74.2 207.4-114.8 335.4-117.4-5.2-103.8-42.2-206.2-112.2-291L580 512l92.6 92.6zM512 580L196.2 895.8c84.8 69.8 187.2 107 291 112.2 2.6-128 43.2-244.8 117.4-335.4L512 580z m383.8 247.8c59.4-72 95-156.8 107.6-244.4-100.2 3.2-191 34.2-262.4 89.6l154.8 154.8zM351.4 419.4C260.6 493.8 143.8 534.6 16 536.8c5.2 103.8 42.2 206.2 112.2 291L444 512l-92.6-92.6z m232 584c87.6-12.6 172.4-48.2 244.4-107.6l-154.8-154.8c-55.4 71.4-86.4 162.4-89.6 262.4z" p-id="4016"></path></svg>